<svg width="679" height="679" viewBox="0 0 679 679" fill="none" xmlns="http://www.w3.org/2000/svg">
<path d="M679 339.5C679 527.001 527.001 679 339.5 679C151.999 679 0 527.001 0 339.5C0 151.999 151.999 0 339.5 0C527.001 0 679 151.999 679 339.5Z" fill="#862D06"/>
<path d="M478 339.5C478 263.009 415.991 201 339.5 201C263.009 201 201 263.009 201 339.5C201 415.991 263.009 478 339.5 478V679C151.999 679 0 527.001 0 339.5C0 151.999 151.999 0 339.5 0C527.001 0 679 151.999 679 339.5C679 527.001 527.001 679 339.5 679V478C415.991 478 478 415.991 478 339.5Z" fill="url(#paint0_radial_26_34)"/>
<path d="M679 339.5C679 527.001 527.001 679 339.5 679C151.999 679 0 527.001 0 339.5C0 151.999 151.999 0 339.5 0C527.001 0 679 151.999 679 339.5Z" fill="#DB490B"/>
<path d="M478 339.5C478 263.009 415.991 201 339.5 201C263.009 201 201 263.009 201 339.5C201 415.991 263.009 478 339.5 478V679C151.999 679 0 527.001 0 339.5C0 151.999 151.999 0 339.5 0C527.001 0 679 151.999 679 339.5C679 527.001 527.001 679 339.5 679V478C415.991 478 478 415.991 478 339.5Z" fill="url(#paint1_radial_26_34)"/>
<path d="M629 339.5C629 179.614 499.386 50 339.5 50C179.614 50 50 179.614 50 339.5C50 499.386 179.614 629 339.5 629V630C179.061 630 49 499.939 49 339.5C49 179.061 179.061 49 339.5 49C499.939 49 630 179.061 630 339.5C630 499.939 499.939 630 339.5 630V629C499.386 629 629 499.386 629 339.5Z" fill="black"/>
<path d="M609 340C609 190.883 488.117 70 339 70C189.883 70 69 190.883 69 340C69 489.117 189.883 610 339 610V611C189.331 611 68 489.669 68 340C68 190.331 189.331 69 339 69C488.669 69 610 190.331 610 340C610 489.669 488.669 611 339 611V610C488.117 610 609 489.117 609 340Z" fill="black"/>
<path d="M571 340C571 211.87 467.13 108 339 108C210.87 108 107 211.87 107 340C107 468.13 210.87 572 339 572V573C210.318 573 106 468.682 106 340C106 211.318 210.318 107 339 107C467.682 107 572 211.318 572 340C572 468.682 467.682 573 339 573V572C467.13 572 571 468.13 571 340Z" fill="black"/>
<path d="M652 340C652 167.135 511.865 27 339 27C166.135 27 26 167.135 26 340C26 512.865 166.135 653 339 653V654C165.583 654 25 513.417 25 340C25 166.583 165.583 26 339 26C512.417 26 653 166.583 653 340C653 513.417 512.417 654 339 654V653C511.865 653 652 512.865 652 340Z" fill="black"/>
<defs>
<radialGradient id="paint0_radial_26_34" cx="0" cy="0" r="1" gradientUnits="userSpaceOnUse" gradientTransform="translate(339.5 339.5) rotate(90) scale(339.5)">
<stop stop-color="#353535"/>
<stop offset="0.173077" stop-color="#565656"/>
<stop offset="0.528846" stop-color="#9B9B9B"/>
</radialGradient>
<radialGradient id="paint1_radial_26_34" cx="0" cy="0" r="1" gradientUnits="userSpaceOnUse" gradientTransform="translate(339.5 339.5) rotate(90) scale(339.5)">
<stop stop-color="#2C2C2C"/>
<stop offset="0.110577" stop-color="#575757"/>
<stop offset="0.384615" stop-color="#686868"/>
<stop offset="0.480769" stop-color="#4B4B4B"/>
<stop offset="0.605669" stop-color="#5F5F5F"/>
<stop offset="0.658654" stop-color="#4B4B4B"/>
<stop offset="0.822115" stop-color="#4B4B4B"/>
<stop offset="1" stop-color="#4B4B4B"/>
</radialGradient>
</defs>
</svg>
